<svg xmlns="http://www.w3.org/2000/svg" xmlns:xlink="http://www.w3.org/1999/xlink" viewBox="0 0 407.94 230.18"><defs><style>.a,.an,.f,.r,.s,.t,.u,.v,.y{fill:none;}.b{isolation:isolate;}.c{clip-path:url(#a);}.d{fill:#fff;}.e{clip-path:url(#b);}.f{stroke:#ebebeb;stroke-width:0.32px;}.an,.f,.r,.s,.t,.u,.v,.y{stroke-linejoin:round;}.g{clip-path:url(#c);}.h{clip-path:url(#d);}.i{clip-path:url(#e);}.j{clip-path:url(#f);}.k{clip-path:url(#g);}.l{clip-path:url(#h);}.m{clip-path:url(#i);}.n{clip-path:url(#j);}.o{clip-path:url(#k);}.p,.q{opacity:0.15;}.aw,.q,.w{fill:#09c;}.r,.t{stroke:#000;}.r,.s{stroke-width:1.07px;}.s,.u{stroke:#09c;}.t,.u,.v,.y{stroke-linecap:round;}.t,.u{stroke-width:0.71px;}.v{stroke:#f73ec3;stroke-width:0.71px;}.w,.x{font-size:14.23px;font-family:Roboto-Italic, Roboto;font-style:italic;}.an,.y{stroke:#333;stroke-width:1.16px;}.z{clip-path:url(#m);}.aa{clip-path:url(#n);}.ab{clip-path:url(#o);}.ac{clip-path:url(#p);}.ad{clip-path:url(#q);}.ae{clip-path:url(#r);}.af{clip-path:url(#s);}.ag{clip-path:url(#t);}.ah{clip-path:url(#u);}.ai{clip-path:url(#v);}.aj{clip-path:url(#w);}.ak,.ao{font-size:12.8px;}.ak{fill:#1a1a1a;}.ak,.ao,.av{font-family:Roboto-Regular, Roboto;}.al{letter-spacing:5.76em;}.am{letter-spacing:0em;}.ao{fill:#4d4d4d;}.ap{letter-spacing:2.31em;}.aq{letter-spacing:2.44em;}.ar{letter-spacing:2.58em;}.as{letter-spacing:2.31em;}.at{letter-spacing:2.45em;}.au{letter-spacing:2.58em;}.av{font-size:16px;}</style><clipPath id="a"><rect class="a" x="47.03" y="17.1" width="177.17" height="177.17"/></clipPath><clipPath id="b"><rect class="a" x="47.03" y="185.48" width="177.17" height="1"/></clipPath><clipPath id="c"><rect class="a" x="47.03" y="145.48" width="177.17" height="1"/></clipPath><clipPath id="d"><rect class="a" x="47.03" y="105.48" width="177.17" height="1"/></clipPath><clipPath id="e"><rect class="a" x="47.03" y="64.48" width="177.17" height="2"/></clipPath><clipPath id="f"><rect class="a" x="47.03" y="24.48" width="177.17" height="1"/></clipPath><clipPath id="g"><rect class="a" x="54.34" y="17.1" width="1" height="177.17"/></clipPath><clipPath id="h"><rect class="a" x="94.34" y="17.1" width="2" height="177.17"/></clipPath><clipPath id="i"><rect class="a" x="135.34" y="17.1" width="1" height="177.17"/></clipPath><clipPath id="j"><rect class="a" x="175.34" y="17.1" width="1" height="177.17"/></clipPath><clipPath id="k"><rect class="a" x="215.34" y="17.1" width="1" height="177.17"/></clipPath><clipPath id="m"><rect class="a" x="230.18" y="17.1" width="177.17" height="177.17"/></clipPath><clipPath id="n"><rect class="a" x="230.18" y="185.48" width="177.17" height="1"/></clipPath><clipPath id="o"><rect class="a" x="230.18" y="145.48" width="177.17" height="1"/></clipPath><clipPath id="p"><rect class="a" x="230.18" y="105.48" width="177.17" height="1"/></clipPath><clipPath id="q"><rect class="a" x="230.18" y="64.48" width="177.17" height="2"/></clipPath><clipPath id="r"><rect class="a" x="230.18" y="24.48" width="177.17" height="1"/></clipPath><clipPath id="s"><rect class="a" x="237.34" y="17.1" width="2" height="177.17"/></clipPath><clipPath id="t"><rect class="a" x="278.34" y="17.1" width="1" height="177.17"/></clipPath><clipPath id="u"><rect class="a" x="318.34" y="17.1" width="1" height="177.17"/></clipPath><clipPath id="v"><rect class="a" x="358.34" y="17.1" width="1" height="177.17"/></clipPath><clipPath id="w"><rect class="a" x="398.34" y="17.1" width="2" height="177.17"/></clipPath></defs><title>annotated tcog curves7</title><g class="b"><g class="c"><rect class="d" x="47.03" y="17.1" width="177.17" height="177.17"/></g><g class="e"><line class="f" x1="47.03" y1="186.22" x2="224.21" y2="186.22"/></g><g class="g"><line class="f" x1="47.03" y1="145.95" x2="224.21" y2="145.95"/></g><g class="h"><line class="f" x1="47.03" y1="105.68" x2="224.21" y2="105.68"/></g><g class="i"><line class="f" x1="47.03" y1="65.42" x2="224.21" y2="65.42"/></g><g class="j"><line class="f" x1="47.03" y1="25.15" x2="224.21" y2="25.15"/></g><g class="k"><line class="f" x1="55.09" y1="194.27" x2="55.09" y2="17.1"/></g><g class="l"><line class="f" x1="95.36" y1="194.27" x2="95.36" y2="17.1"/></g><g class="m"><line class="f" x1="135.62" y1="194.27" x2="135.62" y2="17.1"/></g><g class="n"><line class="f" x1="175.89" y1="194.27" x2="175.89" y2="17.1"/></g><g class="o"><line class="f" x1="216.15" y1="194.27" x2="216.15" y2="17.1"/></g><polygon class="p" points="55.09 25.31 58.31 25.34 61.53 25.37 64.75 25.41 67.97 25.45 71.19 25.5 74.41 25.57 77.64 25.64 80.86 25.71 84.08 25.82 87.3 25.93 90.52 26.06 93.74 26.21 96.97 26.39 100.19 26.61 103.41 26.84 106.63 27.12 109.85 27.45 113.07 27.81 116.29 28.22 119.52 28.68 122.73 29.25 125.96 29.88 129.18 30.6 132.4 31.49 135.62 32.43 138.84 33.48 142.06 34.67 145.28 36.07 148.5 37.64 151.73 39.29 154.95 41.09 158.17 43.17 161.39 45.49 164.61 48.1 167.83 50.9 171.06 53.76 174.28 56.74 177.5 60.15 180.72 64.01 183.94 68.24 187.16 72.37 190.38 76.74 193.61 81.61 196.82 86.26 200.05 91.17 203.27 96.08 206.49 101.01 209.71 106 212.93 110.84 216.15 115.7 216.15 166.14 212.93 163.18 209.71 159.72 206.49 156.07 203.27 152.07 200.05 147.63 196.82 142.8 193.61 137.63 190.38 131.97 187.16 126.16 183.94 120.2 180.72 114.13 177.5 108.04 174.28 101.98 171.06 95.91 167.83 89.77 164.61 83.97 161.39 78.81 158.17 73.91 154.95 69 151.73 64.52 148.5 60.29 145.28 56.74 142.06 53.19 138.84 50.14 135.62 47.36 132.4 44.81 129.18 42.45 125.96 40.43 122.73 38.69 119.52 37.14 116.29 35.64 113.07 34.43 109.85 33.32 106.63 32.37 103.41 31.46 100.19 30.72 96.97 30.05 93.74 29.46 90.52 28.94 87.3 28.51 84.08 28.11 80.86 27.76 77.64 27.45 74.41 27.19 71.19 26.95 67.97 26.75 64.75 26.57 61.53 26.4 58.31 26.26 55.09 26.14 55.09 25.31"/><polygon class="q" points="55.09 25.45 58.31 25.52 61.53 25.61 64.75 25.71 67.97 25.84 71.19 26 74.41 26.2 77.64 26.43 80.86 26.73 84.08 27.1 87.3 27.54 90.52 28.09 93.74 28.73 96.97 29.5 100.19 30.45 103.41 31.56 106.63 32.95 109.85 34.6 113.07 36.57 116.29 38.9 119.52 41.67 122.73 44.9 125.96 48.61 129.18 52.93 132.4 57.72 135.62 63.33 138.84 69.43 142.06 76 145.28 83.01 148.5 90.58 151.73 98.2 154.95 105.89 158.17 113.56 161.39 120.93 164.61 128.36 167.83 135.29 171.06 141.42 174.28 147.07 177.5 152.27 180.72 156.86 183.94 161.08 187.16 164.81 190.38 167.99 193.61 170.7 196.82 173.08 200.05 175.12 203.27 176.91 206.49 178.39 209.71 179.66 212.93 180.72 216.15 181.61 216.15 185.23 212.93 185 209.71 184.72 206.49 184.36 203.27 183.94 200.05 183.41 196.82 182.78 193.61 181.99 190.38 181.06 187.16 179.93 183.94 178.57 180.72 176.96 177.5 175.03 174.28 172.68 171.06 169.96 167.83 166.68 164.61 163.06 161.39 158.85 158.17 154.05 154.95 148.68 151.73 142.6 148.5 135.92 145.28 129.06 142.06 121.76 138.84 113.88 135.62 106 132.4 98.18 129.18 90.52 125.96 82.98 122.73 76.2 119.52 69.8 116.29 63.88 113.07 58.36 109.85 53.42 106.63 49.34 103.41 45.61 100.19 42.4 96.97 39.73 93.74 37.41 90.52 35.47 87.3 33.81 84.08 32.39 80.86 31.25 77.64 30.25 74.41 29.42 71.19 28.72 67.97 28.14 64.75 27.64 61.53 27.22 58.31 26.89 55.09 26.62 55.09 25.45"/><polyline class="r" points="55.09 25.55 58.31 25.61 61.53 25.68 64.75 25.76 67.97 25.86 71.19 25.96 74.41 26.09 77.64 26.23 80.86 26.39 84.08 26.57 87.3 26.79 90.52 27.04 93.74 27.32 96.97 27.64 100.19 28.02 103.41 28.45 106.63 28.94 109.85 29.5 113.07 30.13 116.29 30.86 119.52 31.69 122.73 32.65 125.96 33.73 129.18 34.95 132.4 36.35 135.62 37.91 138.84 39.67 142.06 41.66 145.28 43.9 148.5 46.38 151.73 49.08 154.95 52.13 158.17 55.42 161.39 59.04 164.61 63 167.83 67.22 171.06 71.75 174.28 76.59 177.5 81.59 180.72 86.81 183.94 92.33 187.16 97.89 190.38 103.51 193.61 109.22 196.82 114.95 200.05 120.48 203.27 125.94 206.49 131.2 209.71 136.24 212.93 140.97 216.15 145.43"/><polyline class="s" points="55.09 25.8 58.31 25.95 61.53 26.12 64.75 26.32 67.97 26.57 71.19 26.88 74.41 27.25 77.64 27.7 80.86 28.24 84.08 28.89 87.3 29.68 90.52 30.62 93.74 31.75 96.97 33.1 100.19 34.71 103.41 36.64 106.63 38.92 109.85 41.6 113.07 44.72 116.29 48.35 119.52 52.51 122.73 57.25 125.96 62.57 129.18 68.51 132.4 75.04 135.62 82.01 138.84 89.42 142.06 97.07 145.28 105.02 148.5 112.86 151.73 120.58 154.95 127.99 158.17 134.99 161.39 141.57 164.61 147.61 167.83 153.07 171.06 157.88 174.28 162.18 177.5 165.88 180.72 169.07 183.94 171.84 187.16 174.2 190.38 176.2 193.61 177.88 196.82 179.3 200.05 180.48 203.27 181.47 206.49 182.29 209.71 182.97 212.93 183.54 216.15 184.01"/><path d="M71.37,33.94a2,2,0,0,1-3.91,0,2,2,0,1,1,3.91,0"/><path class="t" d="M71.37,33.94a2,2,0,0,1-3.91,0,2,2,0,1,1,3.91,0"/><path d="M70.76,25.15a2,2,0,1,1-3.91,0,2,2,0,1,1,3.91,0"/><path class="t" d="M70.76,25.15a2,2,0,1,1-3.91,0,2,2,0,1,1,3.91,0"/><path d="M74.7,28a2,2,0,0,1-3.91,0,2,2,0,1,1,3.91,0"/><path class="t" d="M74.7,28a2,2,0,0,1-3.91,0,2,2,0,1,1,3.91,0"/><path d="M72.8,31.23a2,2,0,1,1-3.91,0,2,2,0,1,1,3.91,0"/><path class="t" d="M72.8,31.23a2,2,0,1,1-3.91,0,2,2,0,1,1,3.91,0"/><path d="M73.31,30.9a2,2,0,1,1-3.91,0,2,2,0,0,1,3.91,0"/><path class="t" d="M73.31,30.9a2,2,0,1,1-3.91,0,2,2,0,0,1,3.91,0"/><polygon class="u" points="118.35 62.38 120.98 66.94 115.72 66.94 118.35 62.38"/><polygon class="u" points="119.82 73.88 122.46 78.44 117.19 78.44 119.82 73.88"/><polygon class="u" points="118.25 50.87 120.88 55.43 115.61 55.43 118.25 50.87"/><polygon class="u" points="118.18 71 120.81 75.57 115.54 75.57 118.18 71"/><polygon class="u" points="117.87 68.13 120.5 72.69 115.24 72.69 117.87 68.13"/><polygon class="u" points="138.94 114.15 141.58 118.71 136.31 118.71 138.94 114.15"/><polygon class="u" points="141.63 122.78 144.26 127.34 139 127.34 141.63 122.78"/><polygon class="u" points="138.16 102.64 140.79 107.2 135.52 107.2 138.16 102.64"/><polygon class="u" points="138.07 153.89 140.7 158.45 135.44 158.45 138.07 153.89"/><polygon class="u" points="137.15 108.39 139.78 112.96 134.52 112.96 137.15 108.39"/><polygon class="u" points="158.38 132.47 161.01 137.03 155.75 137.03 158.38 132.47"/><polygon class="u" points="161.82 157.29 164.46 161.85 159.19 161.85 161.82 157.29"/><polygon class="u" points="156.37 131.41 159 135.97 153.74 135.97 156.37 131.41"/><polygon class="u" points="156.38 156.82 159.02 161.38 153.75 161.38 156.38 156.82"/><polygon class="u" points="155.3 153.35 157.93 157.91 152.66 157.91 155.3 153.35"/><path d="M87.51,30.9a2,2,0,1,1-3.91,0,2,2,0,0,1,3.91,0"/><path class="t" d="M87.51,30.9a2,2,0,1,1-3.91,0,2,2,0,0,1,3.91,0"/><path d="M87.46,25.15a2,2,0,1,1-3.91,0,2,2,0,1,1,3.91,0"/><path class="t" d="M87.46,25.15a2,2,0,1,1-3.91,0,2,2,0,1,1,3.91,0"/><path d="M92.43,28a2,2,0,0,1-3.91,0,2,2,0,1,1,3.91,0"/><path class="t" d="M92.43,28a2,2,0,0,1-3.91,0,2,2,0,1,1,3.91,0"/><path d="M89.8,39.53a2,2,0,1,1-3.91,0,2,2,0,0,1,3.91,0"/><path class="t" d="M89.8,39.53a2,2,0,1,1-3.91,0,2,2,0,0,1,3.91,0"/><path d="M90.52,25.15a2,2,0,1,1-3.91,0,2,2,0,1,1,3.91,0"/><path class="t" d="M90.52,25.15a2,2,0,1,1-3.91,0,2,2,0,1,1,3.91,0"/><polygon class="v" points="95.6 25.04 98.23 29.6 92.97 29.6 95.6 25.04"/><polygon class="v" points="96.12 27.86 98.75 32.42 93.49 32.42 96.12 27.86"/><polygon class="v" points="96.57 27.86 99.2 32.42 93.94 32.42 96.57 27.86"/><polygon class="v" points="95.97 39.37 98.61 43.93 93.34 43.93 95.97 39.37"/><polygon class="v" points="111.27 30.74 113.91 35.3 108.64 35.3 111.27 30.74"/><polygon class="v" points="111.84 33.83 114.47 38.38 109.21 38.38 111.84 33.83"/><polygon class="v" points="112.64 25.04 115.28 29.6 110.02 29.6 112.64 25.04"/><polygon class="v" points="111.97 24.99 114.6 29.55 109.34 29.55 111.97 24.99"/><polygon class="v" points="96.03 27.86 98.66 32.42 93.4 32.42 96.03 27.86"/><polygon class="v" points="111.96 24.99 114.59 29.55 109.32 29.55 111.96 24.99"/><polygon class="u" points="133.92 66.04 136.55 70.6 131.28 70.6 133.92 66.04"/><polygon class="u" points="134.8 94.02 137.43 98.58 132.17 98.58 134.8 94.02"/><polygon class="u" points="133.42 45.54 136.06 50.1 130.79 50.1 133.42 45.54"/><polygon class="u" points="133.28 99.77 135.92 104.33 130.65 104.33 133.28 99.77"/><polygon class="u" points="132.97 62.38 135.61 66.94 130.34 66.94 132.97 62.38"/><polygon class="u" points="154.47 135.14 157.1 139.7 151.83 139.7 154.47 135.14"/><polygon class="u" points="155.75 165.92 158.38 170.48 153.12 170.48 155.75 165.92"/><polygon class="u" points="152.6 111.27 155.23 115.83 149.97 115.83 152.6 111.27"/><polygon class="u" points="152.51 157.29 155.14 161.85 149.88 161.85 152.51 157.29"/><polygon class="u" points="151.91 127.54 154.54 132.1 149.27 132.1 151.91 127.54"/><polygon class="u" points="173.56 145.79 176.19 150.35 170.93 150.35 173.56 145.79"/><polygon class="u" points="175.06 157.29 177.69 161.85 172.43 161.85 175.06 157.29"/><polygon class="u" points="167.65 139.25 170.28 143.81 165.01 143.81 167.65 139.25"/><polygon class="u" points="170.33 171.67 172.96 176.23 167.69 176.23 170.33 171.67"/><polygon class="u" points="169.57 154.41 172.2 158.98 166.94 158.98 169.57 154.41"/><path d="M103.19,31.12a2,2,0,0,1-3.9,0,2,2,0,1,1,3.9,0"/><path class="t" d="M103.19,31.12a2,2,0,0,1-3.9,0,2,2,0,1,1,3.9,0"/><path d="M103.44,28a2,2,0,0,1-3.91,0,2,2,0,1,1,3.91,0"/><path class="t" d="M103.44,28a2,2,0,0,1-3.91,0,2,2,0,1,1,3.91,0"/><path d="M108.23,25.15a2,2,0,1,1-3.91,0,2,2,0,1,1,3.91,0"/><path class="t" d="M108.23,25.15a2,2,0,1,1-3.91,0,2,2,0,1,1,3.91,0"/><path d="M105.55,39.28a2,2,0,1,1-3.91,0,2,2,0,1,1,3.91,0"/><path class="t" d="M105.55,39.28a2,2,0,1,1-3.91,0,2,2,0,1,1,3.91,0"/><path d="M106.49,25.15a2,2,0,1,1-3.91,0,2,2,0,1,1,3.91,0"/><path class="t" d="M106.49,25.15a2,2,0,1,1-3.91,0,2,2,0,1,1,3.91,0"/><path d="M127.65,33.78a2,2,0,1,1-3.91,0,2,2,0,1,1,3.91,0"/><path class="t" d="M127.65,33.78a2,2,0,1,1-3.91,0,2,2,0,1,1,3.91,0"/><path d="M128.41,31a2,2,0,0,1-3.91,0,2,2,0,1,1,3.91,0"/><path class="t" d="M128.41,31a2,2,0,0,1-3.91,0,2,2,0,1,1,3.91,0"/><path d="M129.41,33.78a2,2,0,1,1-3.91,0,2,2,0,1,1,3.91,0"/><path class="t" d="M129.41,33.78a2,2,0,1,1-3.91,0,2,2,0,1,1,3.91,0"/><path d="M129.3,30.9a2,2,0,1,1-3.9,0,2,2,0,0,1,3.9,0"/><path class="t" d="M129.3,30.9a2,2,0,1,1-3.9,0,2,2,0,0,1,3.9,0"/><path d="M128.87,25.15a2,2,0,1,1-3.91,0,2,2,0,1,1,3.91,0"/><path class="t" d="M128.87,25.15a2,2,0,1,1-3.91,0,2,2,0,1,1,3.91,0"/><polygon class="u" points="147.72 69.83 150.35 74.39 145.08 74.39 147.72 69.83"/><polygon class="u" points="148.13 94.02 150.76 98.58 145.49 98.58 148.13 94.02"/><polygon class="u" points="147.65 56.63 150.28 61.18 145.02 61.18 147.65 56.63"/><polygon class="u" points="147.19 111.27 149.82 115.83 144.56 115.83 147.19 111.27"/><polygon class="u" points="147.07 85.39 149.7 89.95 144.44 89.95 147.07 85.39"/><polygon class="u" points="167.68 153.89 170.32 158.45 165.05 158.45 167.68 153.89"/><polygon class="u" points="168.24 168.54 170.88 173.09 165.61 173.09 168.24 168.54"/><polygon class="u" points="165.91 125.65 168.54 130.22 163.28 130.22 165.91 125.65"/><polygon class="u" points="165.87 157.29 168.5 161.85 163.24 161.85 165.87 157.29"/><polygon class="u" points="165.4 154.92 168.03 159.48 162.77 159.48 165.4 154.92"/><polygon class="u" points="186 171.67 188.63 176.23 183.36 176.23 186 171.67"/><polygon class="u" points="186.69 165.92 189.33 170.48 184.06 170.48 186.69 165.92"/><polygon class="u" points="180.9 165.61 183.53 170.17 178.27 170.17 180.9 165.61"/><polygon class="u" points="182.97 168.26 185.6 172.82 180.34 172.82 182.97 168.26"/><polygon class="u" points="182.33 165.92 184.96 170.48 179.69 170.48 182.33 165.92"/><path d="M120.14,36.66a2,2,0,0,1-3.91,0,2,2,0,1,1,3.91,0"/><path class="t" d="M120.14,36.66a2,2,0,0,1-3.91,0,2,2,0,1,1,3.91,0"/><path d="M117.28,28a2,2,0,0,1-3.9,0,1.95,1.95,0,1,1,3.9,0"/><path class="t" d="M117.28,28a2,2,0,0,1-3.9,0,1.95,1.95,0,1,1,3.9,0"/><path d="M123.14,33.78a2,2,0,1,1-3.91,0,2,2,0,1,1,3.91,0"/><path class="t" d="M123.14,33.78a2,2,0,1,1-3.91,0,2,2,0,1,1,3.91,0"/><path d="M120.08,42.72a2,2,0,1,1-3.91,0,2,2,0,1,1,3.91,0"/><path class="t" d="M120.08,42.72a2,2,0,1,1-3.91,0,2,2,0,1,1,3.91,0"/><path d="M121.25,30.9a2,2,0,1,1-3.91,0,2,2,0,0,1,3.91,0"/><path class="t" d="M121.25,30.9a2,2,0,1,1-3.91,0,2,2,0,0,1,3.91,0"/><path d="M141.05,33.94a2,2,0,0,1-3.91,0,2,2,0,1,1,3.91,0"/><path class="t" d="M141.05,33.94a2,2,0,0,1-3.91,0,2,2,0,1,1,3.91,0"/><path d="M141.63,42.41a2,2,0,1,1-3.91,0,2,2,0,1,1,3.91,0"/><path class="t" d="M141.63,42.41a2,2,0,1,1-3.91,0,2,2,0,1,1,3.91,0"/><path d="M143,28a2,2,0,0,1-3.9,0,2,2,0,1,1,3.9,0"/><path class="t" d="M143,28a2,2,0,0,1-3.9,0,2,2,0,1,1,3.9,0"/><path d="M143.46,48.58a2,2,0,0,1-3.91,0,2,2,0,1,1,3.91,0"/><path class="t" d="M143.46,48.58a2,2,0,0,1-3.91,0,2,2,0,1,1,3.91,0"/><path d="M142.8,39.53a2,2,0,1,1-3.91,0,2,2,0,0,1,3.91,0"/><path class="t" d="M142.8,39.53a2,2,0,1,1-3.91,0,2,2,0,0,1,3.91,0"/><polygon class="u" points="160.45 65.25 163.09 69.81 157.82 69.81 160.45 65.25"/><polygon class="u" points="161.25 101.18 163.88 105.74 158.61 105.74 161.25 101.18"/><polygon class="u" points="160.63 62.38 163.26 66.94 158 66.94 160.63 62.38"/><polygon class="u" points="160.07 105.52 162.71 110.08 157.44 110.08 160.07 105.52"/><polygon class="u" points="160.02 94.02 162.65 98.58 157.39 98.58 160.02 94.02"/><polygon class="u" points="179.86 150.97 182.5 155.52 177.23 155.52 179.86 150.97"/><polygon class="u" points="180.86 163.04 183.5 167.61 178.23 167.61 180.86 163.04"/><polygon class="u" points="178.47 142.91 181.11 147.47 175.84 147.47 178.47 142.91"/><polygon class="u" points="178.24 148.04 180.88 152.59 175.61 152.59 178.24 148.04"/><polygon class="u" points="177.63 145.11 180.26 149.67 175 149.67 177.63 145.11"/><polygon class="u" points="197.8 158.86 200.43 163.43 195.17 163.43 197.8 158.86"/><polygon class="u" points="198.96 168.54 201.59 173.09 196.33 173.09 198.96 168.54"/><polygon class="u" points="193.4 163.04 196.02 167.61 190.76 167.61 193.4 163.04"/><polygon class="u" points="194.88 183.18 197.52 187.74 192.25 187.74 194.88 183.18"/><polygon class="u" points="194.1 157.29 196.73 161.85 191.47 161.85 194.1 157.29"/><path d="M134.65,58a2,2,0,1,1-3.91,0,2,2,0,0,1,3.91,0"/><path class="t" d="M134.65,58a2,2,0,1,1-3.91,0,2,2,0,0,1,3.91,0"/><path d="M130.68,54.43a2,2,0,1,1-3.91,0,2,2,0,0,1,3.91,0"/><path class="t" d="M130.68,54.43a2,2,0,1,1-3.91,0,2,2,0,0,1,3.91,0"/><path d="M137.13,34.1a2,2,0,0,1-3.91,0,2,2,0,1,1,3.91,0"/><path class="t" d="M137.13,34.1a2,2,0,0,1-3.91,0,2,2,0,1,1,3.91,0"/><path d="M133.59,59.67a2,2,0,0,1-3.91,0,2,2,0,1,1,3.91,0"/><path class="t" d="M133.59,59.67a2,2,0,0,1-3.91,0,2,2,0,1,1,3.91,0"/><path d="M135,31a2,2,0,0,1-3.91,0A2,2,0,1,1,135,31"/><path class="t" d="M135,31a2,2,0,0,1-3.91,0A2,2,0,1,1,135,31"/><path d="M155.66,63.93a2,2,0,0,1-3.91,0,2,2,0,1,1,3.91,0"/><path class="t" d="M155.66,63.93a2,2,0,0,1-3.91,0,2,2,0,1,1,3.91,0"/><path d="M154.15,60.29a2,2,0,1,1-3.91,0,2,2,0,0,1,3.91,0"/><path class="t" d="M154.15,60.29a2,2,0,1,1-3.91,0,2,2,0,0,1,3.91,0"/><path d="M155.68,45.29a2,2,0,0,1-3.91,0,2,2,0,1,1,3.91,0"/><path class="t" d="M155.68,45.29a2,2,0,0,1-3.91,0,2,2,0,1,1,3.91,0"/><path d="M155.09,54.43a2,2,0,1,1-3.91,0,2,2,0,0,1,3.91,0"/><path class="t" d="M155.09,54.43a2,2,0,1,1-3.91,0,2,2,0,0,1,3.91,0"/><path d="M155.68,36.66a2,2,0,0,1-3.91,0,2,2,0,1,1,3.91,0"/><path class="t" d="M155.68,36.66a2,2,0,0,1-3.91,0,2,2,0,1,1,3.91,0"/><path d="M174.14,71.17a2,2,0,1,1-3.91,0,2,2,0,1,1,3.91,0"/><path class="t" d="M174.14,71.17a2,2,0,1,1-3.91,0,2,2,0,1,1,3.91,0"/><path d="M175,94.18a2,2,0,1,1-3.91,0,2,2,0,0,1,3.91,0"/><path class="t" d="M175,94.18a2,2,0,1,1-3.91,0,2,2,0,0,1,3.91,0"/><path d="M174.76,82.68a2,2,0,0,1-3.91,0,2,2,0,1,1,3.91,0"/><path class="t" d="M174.76,82.68a2,2,0,0,1-3.91,0,2,2,0,1,1,3.91,0"/><path d="M174.28,102.81a2,2,0,1,1-3.91,0,2,2,0,1,1,3.91,0"/><path class="t" d="M174.28,102.81a2,2,0,1,1-3.91,0,2,2,0,1,1,3.91,0"/><path d="M174.12,80.79a2,2,0,1,1-3.91,0,2,2,0,1,1,3.91,0"/><path class="t" d="M174.12,80.79a2,2,0,1,1-3.91,0,2,2,0,1,1,3.91,0"/><polygon class="u" points="190.88 154.41 193.51 158.98 188.25 158.98 190.88 154.41"/><polygon class="u" points="192.09 165.92 194.72 170.48 189.45 170.48 192.09 165.92"/><polygon class="u" points="190.04 157.29 192.68 161.85 187.41 161.85 190.04 157.29"/><polygon class="u" points="189.87 165.61 192.5 170.17 187.23 170.17 189.87 165.61"/><polygon class="u" points="189.27 148.66 191.91 153.22 186.65 153.22 189.27 148.66"/><polygon class="u" points="208.06 160.17 210.69 164.73 205.43 164.73 208.06 160.17"/><polygon class="u" points="209.85 174.23 212.48 178.79 207.22 178.79 209.85 174.23"/><polygon class="u" points="206.39 165.61 209.02 170.17 203.75 170.17 206.39 165.61"/><polygon class="u" points="206.13 171.67 208.76 176.23 203.5 176.23 206.13 171.67"/><polygon class="u" points="205.19 171.67 207.82 176.23 202.56 176.23 205.19 171.67"/><text class="w" transform="translate(89.74 151.01)">Rising</text><text class="x" transform="translate(162.09 46.31)">Falling</text><g class="c"><rect class="y" x="47.03" y="17.1" width="177.17" height="177.17"/></g><g class="z"><rect class="d" x="230.18" y="17.1" width="177.17" height="177.17"/></g><g class="aa"><line class="f" x1="230.18" y1="186.22" x2="407.36" y2="186.22"/></g><g class="ab"><line class="f" x1="230.18" y1="145.95" x2="407.36" y2="145.95"/></g><g class="ac"><line class="f" x1="230.18" y1="105.68" x2="407.36" y2="105.68"/></g><g class="ad"><line class="f" x1="230.18" y1="65.42" x2="407.36" y2="65.42"/></g><g class="ae"><line class="f" x1="230.18" y1="25.15" x2="407.36" y2="25.15"/></g><g class="af"><line class="f" x1="238.24" y1="194.27" x2="238.24" y2="17.1"/></g><g class="ag"><line class="f" x1="278.5" y1="194.27" x2="278.5" y2="17.1"/></g><g class="ah"><line class="f" x1="318.77" y1="194.27" x2="318.77" y2="17.1"/></g><g class="ai"><line class="f" x1="359.04" y1="194.27" x2="359.04" y2="17.1"/></g><g class="aj"><line class="f" x1="399.3" y1="194.27" x2="399.3" y2="17.1"/></g><polygon class="p" points="238.24 25.42 241.46 25.46 244.68 25.5 247.9 25.54 251.13 25.59 254.34 25.65 257.57 25.72 260.79 25.79 264.01 25.87 267.23 25.96 270.45 26.07 273.67 26.18 276.89 26.31 280.12 26.46 283.34 26.62 286.56 26.8 289.78 26.99 293 27.21 296.22 27.45 299.44 27.71 302.66 28 305.89 28.33 309.11 28.66 312.33 29 315.55 29.37 318.77 29.75 321.99 30.19 325.21 30.68 328.44 31.2 331.66 31.75 334.88 32.33 338.1 32.92 341.32 33.6 344.54 34.29 347.76 35 350.98 35.75 354.21 36.53 357.43 37.37 360.65 38.3 363.87 39.33 367.09 40.38 370.31 41.62 373.54 42.75 376.75 44.03 379.98 45.37 383.2 46.76 386.42 48.17 389.64 49.67 392.86 51.23 396.08 52.86 399.31 54.63 399.31 128.95 396.08 124.14 392.86 119.48 389.64 114.49 386.42 109.38 383.2 104.52 379.98 99.47 376.75 94.46 373.54 89.4 370.31 84.93 367.09 80.52 363.87 76.26 360.65 72.35 357.43 68.47 354.21 64.58 350.98 60.87 347.76 57.76 344.54 54.9 341.32 52.27 338.1 49.84 334.88 47.65 331.66 45.57 328.44 43.68 325.21 41.95 321.99 40.32 318.77 38.88 315.55 37.62 312.33 36.4 309.11 35.34 305.89 34.38 302.66 33.52 299.44 32.8 296.22 32.14 293 31.51 289.78 31 286.56 30.47 283.34 30.05 280.12 29.68 276.89 29.34 273.67 29.02 270.45 28.71 267.23 28.43 264.01 28.21 260.79 27.99 254.34 27.55 251.13 27.38 247.9 27.2 244.68 27.04 241.46 26.9 238.24 26.77 238.24 25.42"/><polygon class="q" points="238.24 25.37 241.46 25.43 244.68 25.5 247.9 25.6 251.13 25.71 254.34 25.85 257.57 26.03 260.79 26.25 264.01 26.55 267.23 26.91 270.45 27.37 273.67 27.93 276.89 28.62 280.12 29.47 283.34 30.57 286.56 31.89 289.78 33.58 293 35.55 296.22 37.9 299.44 40.68 302.66 44.14 305.89 48.23 309.11 52.97 312.33 58.29 315.55 64.68 318.77 71.25 321.99 78.62 325.21 86.62 328.44 94.8 331.66 103.18 334.88 111.58 338.1 119.76 341.32 127.68 344.54 135.09 347.76 141.64 350.98 147.86 354.21 153.59 357.43 158.54 360.65 162.7 363.87 166.51 367.09 169.7 370.31 172.46 373.54 174.75 376.75 176.68 379.98 178.31 383.2 179.68 386.42 180.82 389.64 181.74 392.86 182.5 396.08 183.16 399.31 183.69 399.31 185.8 396.08 185.69 392.86 185.55 389.64 185.37 386.42 185.14 383.2 184.85 379.98 184.48 376.75 184.02 373.54 183.45 370.31 182.72 367.09 181.82 363.87 180.68 360.65 179.34 357.43 177.66 354.21 175.57 350.98 173.04 347.76 170.01 344.54 166.32 341.32 162.07 338.1 157.15 334.88 151.24 331.66 144.42 328.44 137.24 325.21 129.5 321.99 121.1 318.77 112.24 315.55 103.41 312.33 94.65 309.11 86.04 305.89 78.31 302.66 71.17 299.44 64.47 296.22 58.45 293 53.15 289.78 48.62 286.56 44.7 283.34 41.44 280.12 38.73 276.89 36.34 273.67 34.36 270.45 32.76 267.23 31.45 264.01 30.33 260.79 29.41 257.57 28.66 254.34 28.05 251.13 27.53 247.9 27.12 244.68 26.78 241.46 26.48 238.24 26.24 238.24 25.37"/><polyline class="r" points="238.24 25.83 241.46 25.9 244.68 25.98 247.9 26.06 251.13 26.16 254.34 26.27 257.57 26.38 260.79 26.51 264.01 26.66 267.23 26.81 270.45 26.99 273.67 27.17 276.89 27.38 280.12 27.61 283.34 27.86 286.56 28.14 289.78 28.45 293 28.79 296.22 29.15 299.44 29.57 302.66 30.02 305.89 30.52 309.11 31.08 312.33 31.68 315.55 32.34 318.77 33.05 321.99 33.83 325.21 34.7 328.44 35.63 331.66 36.67 334.88 37.8 338.1 39.01 341.32 40.35 344.54 41.78 347.76 43.32 350.98 44.96 354.21 46.75 357.43 48.72 360.65 50.8 363.87 53.04 367.09 55.43 370.31 57.98 373.54 60.69 376.75 63.57 379.98 66.58 383.2 69.8 386.42 73.13 389.64 76.63 392.86 80.23 396.08 83.83 399.31 87.63"/><polyline class="s" points="238.24 25.64 241.46 25.75 244.68 25.9 247.9 26.08 251.13 26.3 254.34 26.58 257.57 26.92 260.79 27.34 264.01 27.86 267.23 28.51 270.45 29.3 273.67 30.27 276.89 31.45 280.12 32.9 283.34 34.67 286.56 36.8 289.78 39.36 293 42.43 296.22 46.09 299.44 50.33 302.66 55.32 305.89 60.93 309.11 67.29 312.33 74.3 315.55 81.96 318.77 90.11 321.99 98.6 325.21 107.27 328.44 115.9 331.66 124.31 334.88 132.39 338.1 139.74 341.32 146.53 344.54 152.65 347.76 158 350.98 162.7 354.21 166.75 357.43 170.14 360.65 173.02 363.87 175.43 367.09 177.43 370.31 179.06 373.54 180.39 376.75 181.47 379.98 182.38 383.2 183.11 386.42 183.71 389.64 184.2 392.86 184.58 396.08 184.9 399.31 185.15"/><path d="M246.5,28.25a2,2,0,1,1-3.91,0,2,2,0,1,1,3.91,0"/><path class="t" d="M246.5,28.25a2,2,0,1,1-3.91,0,2,2,0,1,1,3.91,0"/><path d="M245.15,25.15a2,2,0,1,1-3.91,0,2,2,0,1,1,3.91,0"/><path class="t" d="M245.15,25.15a2,2,0,1,1-3.91,0,2,2,0,1,1,3.91,0"/><path d="M249.75,25.15a2,2,0,1,1-3.91,0,2,2,0,1,1,3.91,0"/><path class="t" d="M249.75,25.15a2,2,0,1,1-3.91,0,2,2,0,1,1,3.91,0"/><path d="M248.35,28.25a2,2,0,1,1-3.91,0,2,2,0,1,1,3.91,0"/><path class="t" d="M248.35,28.25a2,2,0,1,1-3.91,0,2,2,0,1,1,3.91,0"/><path d="M248.62,25.15a2,2,0,1,1-3.91,0,2,2,0,1,1,3.91,0"/><path class="t" d="M248.62,25.15a2,2,0,1,1-3.91,0,2,2,0,1,1,3.91,0"/><polygon class="u" points="301.5 82.12 304.14 86.68 298.87 86.68 301.5 82.12"/><polygon class="u" points="302.98 90.25 305.61 94.81 300.34 94.81 302.98 90.25"/><polygon class="u" points="301.4 53.09 304.03 57.65 298.77 57.65 301.4 53.09"/><polygon class="u" points="301.33 99.55 303.96 104.11 298.69 104.11 301.33 99.55"/><polygon class="u" points="301.02 59.28 303.66 63.84 298.39 63.84 301.02 59.28"/><polygon class="u" points="322.1 115.53 324.73 120.09 319.46 120.09 322.1 115.53"/><polygon class="u" points="324.78 136.72 327.41 141.28 322.14 141.28 324.78 136.72"/><polygon class="u" points="321.31 124.33 323.94 128.89 318.68 128.89 321.31 124.33"/><polygon class="u" points="321.22 149.11 323.86 153.66 318.59 153.66 321.22 149.11"/><polygon class="u" points="320.3 136.72 322.93 141.28 317.67 141.28 320.3 136.72"/><polygon class="u" points="341.53 151.59 344.16 156.16 338.89 156.16 341.53 151.59"/><polygon class="u" points="344.98 167.69 347.61 172.25 342.34 172.25 344.98 167.69"/><polygon class="u" points="339.52 149.11 342.16 153.66 336.89 153.66 339.52 149.11"/><polygon class="u" points="339.54 164.59 342.17 169.15 336.9 169.15 339.54 164.59"/><polygon class="u" points="338.45 139.81 341.08 144.37 335.82 144.37 338.45 139.81"/><path d="M255.15,28.25a2,2,0,1,1-3.9,0,2,2,0,1,1,3.9,0"/><path class="t" d="M255.15,28.25a2,2,0,1,1-3.9,0,2,2,0,1,1,3.9,0"/><path d="M254.5,25.15a2,2,0,1,1-3.91,0,2,2,0,1,1,3.91,0"/><path class="t" d="M254.5,25.15a2,2,0,1,1-3.91,0,2,2,0,1,1,3.91,0"/><path d="M258.25,28.25a2,2,0,1,1-3.9,0,2,2,0,1,1,3.9,0"/><path class="t" d="M258.25,28.25a2,2,0,1,1-3.9,0,2,2,0,1,1,3.9,0"/><path d="M257.55,28.25a2,2,0,1,1-3.9,0,2,2,0,1,1,3.9,0"/><path class="t" d="M257.55,28.25a2,2,0,1,1-3.9,0,2,2,0,1,1,3.9,0"/><path d="M257.28,25.15a2,2,0,1,1-3.91,0,2,2,0,1,1,3.91,0"/><path class="t" d="M257.28,25.15a2,2,0,1,1-3.91,0,2,2,0,1,1,3.91,0"/><polygon class="v" points="278.75 22.11 281.38 26.67 276.11 26.67 278.75 22.11"/><polygon class="v" points="279.27 25.21 281.91 29.77 276.64 29.77 279.27 25.21"/><polygon class="v" points="279.72 22.11 282.36 26.67 277.09 26.67 279.72 22.11"/><polygon class="v" points="279.12 25.21 281.75 29.77 276.49 29.77 279.12 25.21"/><polygon class="v" points="279.18 22.11 281.82 26.67 276.55 26.67 279.18 22.11"/><polygon class="v" points="294.43 25.33 297.06 29.89 291.79 29.89 294.43 25.33"/><polygon class="v" points="294.99 25.21 297.63 29.77 292.36 29.77 294.99 25.21"/><polygon class="v" points="295.8 25.21 298.43 29.77 293.16 29.77 295.8 25.21"/><polygon class="v" points="295.11 25.21 297.74 29.77 292.48 29.77 295.11 25.21"/><polygon class="v" points="295.12 22.11 297.75 26.67 292.49 26.67 295.12 22.11"/><polygon class="u" points="317.07 87.16 319.7 91.72 314.44 91.72 317.07 87.16"/><polygon class="u" points="317.95 96.45 320.58 101.01 315.32 101.01 317.95 96.45"/><polygon class="u" points="316.57 68.57 319.21 73.13 313.94 73.13 316.57 68.57"/><polygon class="u" points="316.44 102.64 319.07 107.2 313.81 107.2 316.44 102.64"/><polygon class="u" points="316.13 74.77 318.75 79.33 313.49 79.33 316.13 74.77"/><polygon class="u" points="337.61 152.2 340.25 156.76 334.98 156.76 337.61 152.2"/><polygon class="u" points="338.9 157.91 341.53 162.47 336.27 162.47 338.9 157.91"/><polygon class="u" points="335.75 105.74 338.39 110.3 333.12 110.3 335.75 105.74"/><polygon class="u" points="335.66 164.23 338.29 168.79 333.03 168.79 335.66 164.23"/><polygon class="u" points="335.06 139.81 337.69 144.37 332.43 144.37 335.06 139.81"/><polygon class="u" points="356.71 158.4 359.35 162.96 354.08 162.96 356.71 158.4"/><polygon class="u" points="358.21 164.59 360.85 169.15 355.58 169.15 358.21 164.59"/><polygon class="u" points="350.8 152.2 353.43 156.76 348.16 156.76 350.8 152.2"/><polygon class="u" points="353.48 173.89 356.11 178.45 350.85 178.45 353.48 173.89"/><polygon class="u" points="352.72 158.4 355.35 162.96 350.09 162.96 352.72 158.4"/><path d="M262.93,28.25a2,2,0,1,1-3.91,0,2,2,0,1,1,3.91,0"/><path class="t" d="M262.93,28.25a2,2,0,1,1-3.91,0,2,2,0,1,1,3.91,0"/><path d="M262.92,28.25a2,2,0,1,1-3.91,0,2,2,0,1,1,3.91,0"/><path class="t" d="M262.92,28.25a2,2,0,1,1-3.91,0,2,2,0,1,1,3.91,0"/><path d="M266.34,25.15a2,2,0,1,1-3.91,0,2,2,0,1,1,3.91,0"/><path class="t" d="M266.34,25.15a2,2,0,1,1-3.91,0,2,2,0,1,1,3.91,0"/><path d="M267.07,31.47a2,2,0,1,1-3.91,0,2,2,0,1,1,3.91,0"/><path class="t" d="M267.07,31.47a2,2,0,1,1-3.91,0,2,2,0,1,1,3.91,0"/><path d="M265.73,28.25a2,2,0,1,1-3.91,0,2,2,0,1,1,3.91,0"/><path class="t" d="M265.73,28.25a2,2,0,1,1-3.91,0,2,2,0,1,1,3.91,0"/><path d="M304.87,28.25a2,2,0,1,1-3.91,0,2,2,0,1,1,3.91,0"/><path class="t" d="M304.87,28.25a2,2,0,1,1-3.91,0,2,2,0,1,1,3.91,0"/><path d="M305,25.15a2,2,0,1,1-3.91,0,2,2,0,1,1,3.91,0"/><path class="t" d="M305,25.15a2,2,0,1,1-3.91,0,2,2,0,1,1,3.91,0"/><path d="M306.51,25.15a2,2,0,1,1-3.9,0,2,2,0,1,1,3.9,0"/><path class="t" d="M306.51,25.15a2,2,0,1,1-3.9,0,2,2,0,1,1,3.9,0"/><path d="M306,28.25a2,2,0,1,1-3.91,0,2,2,0,1,1,3.91,0"/><path class="t" d="M306,28.25a2,2,0,1,1-3.91,0,2,2,0,1,1,3.91,0"/><path d="M305.93,25.15a2,2,0,1,1-3.91,0,2,2,0,1,1,3.91,0"/><path class="t" d="M305.93,25.15a2,2,0,1,1-3.91,0,2,2,0,1,1,3.91,0"/><polygon class="u" points="330.86 90.25 333.5 94.81 328.23 94.81 330.86 90.25"/><polygon class="u" points="331.28 90.25 333.91 94.81 328.64 94.81 331.28 90.25"/><polygon class="u" points="330.8 65.47 333.43 70.04 328.17 70.04 330.8 65.47"/><polygon class="u" points="330.34 99.55 332.98 104.11 327.71 104.11 330.34 99.55"/><polygon class="u" points="330.22 84.06 332.85 88.62 327.59 88.62 330.22 84.06"/><polygon class="u" points="350.84 155.3 353.47 159.86 348.2 159.86 350.84 155.3"/><polygon class="u" points="351.39 155.3 354.03 159.86 348.76 159.86 351.39 155.3"/><polygon class="u" points="349.06 130.52 351.69 135.08 346.43 135.08 349.06 130.52"/><polygon class="u" points="349.02 158.4 351.65 162.96 346.39 162.96 349.02 158.4"/><polygon class="u" points="348.55 146.01 351.18 150.57 345.92 150.57 348.55 146.01"/><polygon class="u" points="369.15 167.39 371.78 171.95 366.52 171.95 369.15 167.39"/><polygon class="u" points="369.84 167.39 372.48 171.95 367.21 171.95 369.84 167.39"/><polygon class="u" points="364.05 157.91 366.68 162.47 361.42 162.47 364.05 157.91"/><polygon class="u" points="366.12 167.69 368.75 172.25 363.49 172.25 366.12 167.69"/><polygon class="u" points="365.48 173.89 368.11 178.45 362.84 178.45 365.48 173.89"/><path d="M268.65,31.34a2,2,0,1,1-3.91,0,2,2,0,0,1,3.91,0"/><path class="t" d="M268.65,31.34a2,2,0,1,1-3.91,0,2,2,0,0,1,3.91,0"/><path d="M267.5,31.34a2,2,0,1,1-3.91,0,2,2,0,0,1,3.91,0"/><path class="t" d="M267.5,31.34a2,2,0,1,1-3.91,0,2,2,0,0,1,3.91,0"/><path d="M274,31.34a2,2,0,1,1-3.91,0,2,2,0,0,1,3.91,0"/><path class="t" d="M274,31.34a2,2,0,1,1-3.91,0,2,2,0,0,1,3.91,0"/><path d="M274.38,34.44a2,2,0,1,1-3.91,0,2,2,0,0,1,3.91,0"/><path class="t" d="M274.38,34.44a2,2,0,1,1-3.91,0,2,2,0,0,1,3.91,0"/><path d="M273,28.25a2,2,0,1,1-3.91,0,2,2,0,1,1,3.91,0"/><path class="t" d="M273,28.25a2,2,0,1,1-3.91,0,2,2,0,1,1,3.91,0"/><path d="M311.66,31.59a2,2,0,1,1-3.91,0,2,2,0,0,1,3.91,0"/><path class="t" d="M311.66,31.59a2,2,0,1,1-3.91,0,2,2,0,0,1,3.91,0"/><path d="M311.37,28.31a2,2,0,1,1-3.91,0,2,2,0,1,1,3.91,0"/><path class="t" d="M311.37,28.31a2,2,0,1,1-3.91,0,2,2,0,1,1,3.91,0"/><path d="M313.79,25.15a2,2,0,1,1-3.91,0,2,2,0,1,1,3.91,0"/><path class="t" d="M313.79,25.15a2,2,0,1,1-3.91,0,2,2,0,1,1,3.91,0"/><path d="M313.29,31.34a2,2,0,1,1-3.91,0,2,2,0,0,1,3.91,0"/><path class="t" d="M313.29,31.34a2,2,0,1,1-3.91,0,2,2,0,0,1,3.91,0"/><path d="M313.14,28.25a2,2,0,1,1-3.91,0,2,2,0,1,1,3.91,0"/><path class="t" d="M313.14,28.25a2,2,0,1,1-3.91,0,2,2,0,1,1,3.91,0"/><polygon class="u" points="343.61 90.25 346.24 94.81 340.97 94.81 343.61 90.25"/><polygon class="u" points="344.39 110.54 347.03 115.1 341.76 115.1 344.39 110.54"/><polygon class="u" points="343.78 80.96 346.41 85.52 341.15 85.52 343.78 80.96"/><polygon class="u" points="343.23 101.07 345.86 105.63 340.59 105.63 343.23 101.07"/><polygon class="u" points="343.17 74.77 345.81 79.33 340.54 79.33 343.17 74.77"/><polygon class="u" points="363.02 149.11 365.65 153.66 360.38 153.66 363.02 149.11"/><polygon class="u" points="364.02 158.4 366.65 162.96 361.38 162.96 364.02 158.4"/><polygon class="u" points="361.63 154.75 364.26 159.31 358.99 159.31 361.63 154.75"/><polygon class="u" points="361.39 167.69 364.03 172.25 358.76 172.25 361.39 167.69"/><polygon class="u" points="360.78 146.01 363.41 150.57 358.15 150.57 360.78 146.01"/><polygon class="u" points="380.95 170.79 383.59 175.35 378.32 175.35 380.95 170.79"/><polygon class="u" points="382.11 173.89 384.74 178.45 379.48 178.45 382.11 173.89"/><polygon class="u" points="376.54 158.4 379.18 162.96 373.91 162.96 376.54 158.4"/><polygon class="u" points="378.03 161.5 380.66 166.06 375.4 166.06 378.03 161.5"/><polygon class="u" points="377.25 155.3 379.88 159.86 374.62 159.86 377.25 155.3"/><path d="M276.31,40.64a2,2,0,0,1-3.9,0,2,2,0,1,1,3.9,0"/><path class="t" d="M276.31,40.64a2,2,0,0,1-3.9,0,2,2,0,1,1,3.9,0"/><path d="M271.84,40.64a2,2,0,0,1-3.91,0,2,2,0,1,1,3.91,0"/><path class="t" d="M271.84,40.64a2,2,0,0,1-3.91,0,2,2,0,1,1,3.91,0"/><path d="M283.28,31.34a2,2,0,1,1-3.91,0,2,2,0,0,1,3.91,0"/><path class="t" d="M283.28,31.34a2,2,0,1,1-3.91,0,2,2,0,0,1,3.91,0"/><path d="M279.71,46.83a2,2,0,1,1-3.91,0,2,2,0,0,1,3.91,0"/><path class="t" d="M279.71,46.83a2,2,0,1,1-3.91,0,2,2,0,0,1,3.91,0"/><path d="M280.13,34.81a2,2,0,1,1-3.91,0,2,2,0,0,1,3.91,0"/><path class="t" d="M280.13,34.81a2,2,0,1,1-3.91,0,2,2,0,0,1,3.91,0"/><path d="M318.61,34.44a2,2,0,1,1-3.91,0,2,2,0,0,1,3.91,0"/><path class="t" d="M318.61,34.44a2,2,0,1,1-3.91,0,2,2,0,0,1,3.91,0"/><path d="M317.44,34.44a2,2,0,1,1-3.91,0,2,2,0,0,1,3.91,0"/><path class="t" d="M317.44,34.44a2,2,0,1,1-3.91,0,2,2,0,0,1,3.91,0"/><path d="M321.59,28.25a2,2,0,1,1-3.91,0,2,2,0,1,1,3.91,0"/><path class="t" d="M321.59,28.25a2,2,0,1,1-3.91,0,2,2,0,1,1,3.91,0"/><path d="M320,34.44a2,2,0,1,1-3.91,0,2,2,0,0,1,3.91,0"/><path class="t" d="M320,34.44a2,2,0,1,1-3.91,0,2,2,0,0,1,3.91,0"/><path d="M319.82,25.15a2,2,0,1,1-3.91,0,2,2,0,1,1,3.91,0"/><path class="t" d="M319.82,25.15a2,2,0,1,1-3.91,0,2,2,0,1,1,3.91,0"/><path d="M352.85,62.32a2,2,0,1,1-3.91,0,2,2,0,0,1,3.91,0"/><path class="t" d="M352.85,62.32a2,2,0,1,1-3.91,0,2,2,0,0,1,3.91,0"/><path d="M353.36,71.61a2,2,0,1,1-3.91,0,2,2,0,1,1,3.91,0"/><path class="t" d="M353.36,71.61a2,2,0,1,1-3.91,0,2,2,0,1,1,3.91,0"/><path d="M353.5,59.22a2,2,0,1,1-3.91,0,2,2,0,0,1,3.91,0"/><path class="t" d="M353.5,59.22a2,2,0,1,1-3.91,0,2,2,0,0,1,3.91,0"/><path d="M353.15,68.52a2,2,0,1,1-3.9,0,2,2,0,1,1,3.9,0"/><path class="t" d="M353.15,68.52a2,2,0,1,1-3.9,0,2,2,0,1,1,3.9,0"/><path d="M352.86,50.42a2,2,0,0,1-3.92,0,2,2,0,0,1,3.92,0"/><path class="t" d="M352.86,50.42a2,2,0,0,1-3.92,0,2,2,0,0,1,3.92,0"/><polygon class="u" points="374.03 161.5 376.66 166.06 371.4 166.06 374.03 161.5"/><polygon class="u" points="375.23 164.59 377.87 169.15 372.6 169.15 375.23 164.59"/><polygon class="u" points="373.19 167.39 375.83 171.95 370.56 171.95 373.19 167.39"/><polygon class="u" points="373.02 167.69 375.65 172.25 370.39 172.25 373.02 167.69"/><polygon class="u" points="372.43 152.2 375.06 156.76 369.79 156.76 372.43 152.2"/><polygon class="u" points="391.21 164.59 393.84 169.15 388.57 169.15 391.21 164.59"/><polygon class="u" points="393 170.79 395.63 175.35 390.37 175.35 393 170.79"/><polygon class="u" points="389.54 164.59 392.17 169.15 386.91 169.15 389.54 164.59"/><polygon class="u" points="389.28 176.98 391.91 181.54 386.65 181.54 389.28 176.98"/><polygon class="u" points="388.34 170.79 390.97 175.35 385.71 175.35 388.34 170.79"/><g class="z"><rect class="y" x="230.18" y="17.1" width="177.17" height="177.17"/></g><text class="ak" transform="translate(76.76 10.95)">Exp.1 (Gradual Falls<tspan class="al" x="113.27" y="0">)</tspan><tspan class="am" x="191.45" y="0">Exp.2 (Early Falls)</tspan></text><line class="an" x1="55.09" y1="197.26" x2="55.09" y2="194.27"/><line class="an" x1="95.36" y1="197.26" x2="95.36" y2="194.27"/><line class="an" x1="135.62" y1="197.26" x2="135.62" y2="194.27"/><line class="an" x1="175.89" y1="197.26" x2="175.89" y2="194.27"/><line class="an" x1="216.15" y1="197.26" x2="216.15" y2="194.27"/><text class="ao" transform="translate(49.73 208.75)">-<tspan class="ap" x="3.53" y="0">6</tspan><tspan x="40.26" y="0">-</tspan><tspan class="aq" x="43.79" y="0">3</tspan><tspan class="ar" x="82.28" y="0">03</tspan><tspan x="162.78" y="0">6</tspan></text><line class="an" x1="238.24" y1="197.26" x2="238.24" y2="194.27"/><line class="an" x1="278.5" y1="197.26" x2="278.5" y2="194.27"/><line class="an" x1="318.77" y1="197.26" x2="318.77" y2="194.27"/><line class="an" x1="359.04" y1="197.26" x2="359.04" y2="194.27"/><line class="an" x1="399.3" y1="197.26" x2="399.3" y2="194.27"/><text class="ao" transform="translate(232.88 208.75)">-<tspan class="as" x="3.53" y="0">6</tspan><tspan x="40.25" y="0">-</tspan><tspan class="at" x="43.78" y="0">3</tspan><tspan class="au" x="82.28" y="0">03</tspan><tspan x="162.78" y="0">6</tspan></text><text class="ao" transform="translate(34.46 190.77)">0</text><text class="ao" transform="translate(27.28 150.5)">25</text><text class="ao" transform="translate(27.28 110.24)">50</text><text class="ao" transform="translate(27.28 69.97)">75</text><text class="ao" transform="translate(20.09 29.7)">100</text><line class="an" x1="44.04" y1="186.22" x2="47.03" y2="186.22"/><line class="an" x1="44.04" y1="145.95" x2="47.03" y2="145.95"/><line class="an" x1="44.04" y1="105.68" x2="47.03" y2="105.68"/><line class="an" x1="44.04" y1="65.42" x2="47.03" y2="65.42"/><line class="an" x1="44.04" y1="25.15" x2="47.03" y2="25.15"/><text class="av" transform="translate(155.81 225.84)">TCoG-F (semitones)</text><text class="av" transform="translate(13.69 137.26) rotate(-90)">% Telling</text></g><path class="aw" d="M238.5,103l-.48,2.78h-.92l1.23-7.11h2.38a2.31,2.31,0,0,1,1.69.58,1.85,1.85,0,0,1,.52,1.55,2.24,2.24,0,0,1-.82,1.61,2.94,2.94,0,0,1-1.91.58Zm.13-.77h1.58a1.94,1.94,0,0,0,1.23-.38,1.48,1.48,0,0,0,.56-1,1.17,1.17,0,0,0-.25-1,1.22,1.22,0,0,0-.95-.39h-1.68Z"/><path class="aw" d="M244.09,105.77h-.88l1.3-7.5h.88Z"/><path class="aw" d="M248.76,105.77a1.33,1.33,0,0,1,0-.28l0-.28a2.2,2.2,0,0,1-1.55.66,1.62,1.62,0,0,1-1.13-.44,1.34,1.34,0,0,1-.4-1.09,1.64,1.64,0,0,1,.73-1.31,3.18,3.18,0,0,1,1.81-.47h.92l.06-.42a1,1,0,0,0-.18-.75.89.89,0,0,0-.7-.29,1.44,1.44,0,0,0-.8.22.93.93,0,0,0-.43.62h-.89a1.42,1.42,0,0,1,.36-.82,2.1,2.1,0,0,1,.82-.56,2.77,2.77,0,0,1,1-.19,1.73,1.73,0,0,1,1.28.51,1.52,1.52,0,0,1,.39,1.27l-.43,2.62,0,.38a2.46,2.46,0,0,0,.06.53v.08Zm-1.38-.68a1.52,1.52,0,0,0,.8-.21,2,2,0,0,0,.65-.58l.19-1.09h-.67a2.45,2.45,0,0,0-1.27.27,1,1,0,0,0-.51.74.74.74,0,0,0,.18.62A.8.8,0,0,0,247.38,105.09Z"/><path class="aw" d="M253.19,99.21l-.22,1.28h1l-.12.7h-1l-.55,3.28a2,2,0,0,0,0,.24.38.38,0,0,0,.42.38,2.83,2.83,0,0,0,.43,0l-.07.74a2.8,2.8,0,0,1-.64.08.9.9,0,0,1-.79-.38,1.5,1.5,0,0,1-.21-1l.54-3.27H251l.12-.7h.93l.22-1.28Z"/><path class="aw" d="M256.36,105.87a1.94,1.94,0,0,1-1.54-.73,2.5,2.5,0,0,1-.47-1.81l0-.21a3.59,3.59,0,0,1,.46-1.44,2.77,2.77,0,0,1,.94-1,2.14,2.14,0,0,1,1.19-.31,1.67,1.67,0,0,1,1.28.54,2.18,2.18,0,0,1,.5,1.42,4.42,4.42,0,0,1,0,.63l-.06.41h-3.45a1.76,1.76,0,0,0,.24,1.22,1.12,1.12,0,0,0,1,.52,1.88,1.88,0,0,0,1.44-.7l.51.43a2.31,2.31,0,0,1-.86.75A2.51,2.51,0,0,1,256.36,105.87Zm.56-4.74a1.27,1.27,0,0,0-1,.37,2.68,2.68,0,0,0-.65,1.15h2.57l0-.08a1.42,1.42,0,0,0-.2-1A.92.92,0,0,0,256.92,101.13Z"/><path class="aw" d="M262.5,105.77a.9.9,0,0,1,0-.28l0-.28a2.2,2.2,0,0,1-1.55.66,1.62,1.62,0,0,1-1.13-.44,1.34,1.34,0,0,1-.4-1.09,1.64,1.64,0,0,1,.73-1.31,3.18,3.18,0,0,1,1.81-.47h.92l.06-.42a1,1,0,0,0-.18-.75.89.89,0,0,0-.7-.29,1.44,1.44,0,0,0-.8.22.93.93,0,0,0-.43.62h-.89a1.42,1.42,0,0,1,.36-.82,2.18,2.18,0,0,1,.82-.56,2.77,2.77,0,0,1,1-.19,1.73,1.73,0,0,1,1.28.51,1.52,1.52,0,0,1,.39,1.27l-.43,2.62,0,.38a2.46,2.46,0,0,0,.06.53v.08Zm-1.39-.68a1.52,1.52,0,0,0,.8-.21,2,2,0,0,0,.65-.58l.19-1.09h-.67a2.45,2.45,0,0,0-1.27.27,1,1,0,0,0-.51.74.74.74,0,0,0,.18.62A.8.8,0,0,0,261.11,105.09Z"/><path class="aw" d="M267.94,105.25a2.06,2.06,0,0,1-1.57.62,1.34,1.34,0,0,1-1.12-.54,2,2,0,0,1-.27-1.43l.56-3.41h.89l-.58,3.43a2.84,2.84,0,0,0,0,.41,1,1,0,0,0,.21.56.75.75,0,0,0,.52.21,1.58,1.58,0,0,0,1.47-.77l.66-3.84h.88l-.91,5.28h-.84Z"/><path class="aw" d="M272.28,103.12H270l.13-.74h2.32Z"/><path class="aw" d="M273.67,105.77h-.88l1.3-7.5H275Z"/><path class="aw" d="M276.07,105.77h-.88l.92-5.28H277Zm.73-7.21a.48.48,0,0,1,.37.13.56.56,0,0,1,0,.76.54.54,0,0,1-.37.15.46.46,0,0,1-.38-.13.48.48,0,0,1-.14-.37.52.52,0,0,1,.15-.38A.47.47,0,0,1,276.8,98.56Z"/><path class="aw" d="M279.41,103.33l-.69.62-.32,1.82h-.88l1.3-7.5h.89l-.78,4.48.54-.54,1.87-1.72h1.15l-2.43,2.25,1.67,3h-1Z"/><path class="aw" d="M284.67,105.87a1.92,1.92,0,0,1-1.54-.73,2.46,2.46,0,0,1-.47-1.81l0-.21a3.6,3.6,0,0,1,.47-1.44,2.67,2.67,0,0,1,.93-1,2.19,2.19,0,0,1,1.19-.31,1.66,1.66,0,0,1,1.28.54,2.24,2.24,0,0,1,.51,1.42,4.42,4.42,0,0,1,0,.63l-.05.41h-3.45a1.81,1.81,0,0,0,.23,1.22,1.13,1.13,0,0,0,1,.52,1.91,1.91,0,0,0,1.45-.7l.5.43a2.28,2.28,0,0,1-.85.75A2.51,2.51,0,0,1,284.67,105.87Zm.56-4.74a1.31,1.31,0,0,0-1,.37,2.67,2.67,0,0,0-.64,1.15h2.57l0-.08a1.47,1.47,0,0,0-.2-1A1,1,0,0,0,285.23,101.13Z"/><path class="aw" d="M239.9,112.39a2,2,0,0,1,1.14.36,2.2,2.2,0,0,1,.7,1,3,3,0,0,1,.15,1.35v.11a3.41,3.41,0,0,1-.46,1.39,2.6,2.6,0,0,1-.95,1,2.32,2.32,0,0,1-1.27.33,2,2,0,0,1-1.14-.36,2.06,2.06,0,0,1-.69-1,3.05,3.05,0,0,1-.16-1.33,3.61,3.61,0,0,1,.45-1.48,2.72,2.72,0,0,1,1-1A2.31,2.31,0,0,1,239.9,112.39Zm-1.8,2.83a3.42,3.42,0,0,0,0,.64,1.59,1.59,0,0,0,.34.92,1,1,0,0,0,.79.36,1.41,1.41,0,0,0,.81-.22,1.88,1.88,0,0,0,.63-.7,3,3,0,0,0,.33-1,4.93,4.93,0,0,0,0-.76,1.63,1.63,0,0,0-.36-.93,1,1,0,0,0-.79-.36,1.46,1.46,0,0,0-1.16.53,2.69,2.69,0,0,0-.59,1.45Z"/><path class="aw" d="M245.83,113.29l-.41,0a1.49,1.49,0,0,0-1.34.77l-.65,3.75h-.89l.92-5.28h.86l-.14.62a1.61,1.61,0,0,1,1.33-.72,1.58,1.58,0,0,1,.42.07Z"/><path class="aw" d="M251.61,113.29l-.41,0a1.49,1.49,0,0,0-1.34.77l-.65,3.75h-.88l.91-5.28h.86l-.13.62a1.58,1.58,0,0,1,1.32-.72,1.52,1.52,0,0,1,.42.07Z"/><path class="aw" d="M252.61,117.77h-.88l.92-5.28h.88Zm.73-7.21a.48.48,0,0,1,.37.13.53.53,0,0,1-.37.91.47.47,0,0,1-.38-.13.51.51,0,0,1-.14-.37.56.56,0,0,1,.15-.38A.49.49,0,0,1,253.34,110.56Z"/><path class="aw" d="M257.33,116.34c.05-.36-.15-.62-.6-.77l-.92-.27c-.77-.27-1.15-.71-1.12-1.33a1.46,1.46,0,0,1,.63-1.14,2.26,2.26,0,0,1,1.42-.44,1.86,1.86,0,0,1,1.3.47,1.46,1.46,0,0,1,.49,1.18h-.88a.84.84,0,0,0-.25-.64,1,1,0,0,0-.69-.26,1.29,1.29,0,0,0-.79.22.81.81,0,0,0-.36.58c0,.3.15.53.56.67l.45.12a2.87,2.87,0,0,1,1.29.61,1.17,1.17,0,0,1,.35.93,1.51,1.51,0,0,1-.32.86,1.84,1.84,0,0,1-.79.56,2.56,2.56,0,0,1-1,.18,2.05,2.05,0,0,1-1.38-.49,1.52,1.52,0,0,1-.53-1.24H255a1,1,0,0,0,.29.72,1.06,1.06,0,0,0,.77.27,1.52,1.52,0,0,0,.84-.21A.77.77,0,0,0,257.33,116.34Z"/><path class="aw" d="M261.39,117.87a1.89,1.89,0,0,1-1.54-.73,2.5,2.5,0,0,1-.47-1.81l0-.21a3.76,3.76,0,0,1,.47-1.44,2.66,2.66,0,0,1,.94-1,2.15,2.15,0,0,1,1.19-.32,1.67,1.67,0,0,1,1.28.54,2.23,2.23,0,0,1,.5,1.42,3.32,3.32,0,0,1,0,.63l-.05.41h-3.45a1.76,1.76,0,0,0,.24,1.22,1.11,1.11,0,0,0,1,.52,1.88,1.88,0,0,0,1.45-.7l.51.43a2.31,2.31,0,0,1-.86.75A2.4,2.4,0,0,1,261.39,117.87Zm.56-4.74a1.27,1.27,0,0,0-.95.37,2.68,2.68,0,0,0-.65,1.15h2.57l0-.08a1.42,1.42,0,0,0-.2-1A.93.93,0,0,0,262,113.13Z"/><path class="aw" d="M267.56,116.34c.05-.36-.15-.62-.6-.77l-.92-.27c-.77-.27-1.14-.71-1.12-1.33a1.47,1.47,0,0,1,.64-1.14,2.23,2.23,0,0,1,1.42-.44,1.88,1.88,0,0,1,1.3.47,1.48,1.48,0,0,1,.48,1.18h-.88a.81.81,0,0,0-.25-.64.94.94,0,0,0-.69-.26,1.31,1.31,0,0,0-.79.22.83.83,0,0,0-.35.58c-.05.3.14.53.56.67l.44.12a2.76,2.76,0,0,1,1.29.61,1.17,1.17,0,0,1,.35.93,1.44,1.44,0,0,1-.32.86,1.87,1.87,0,0,1-.78.56,2.59,2.59,0,0,1-1,.18,2.1,2.1,0,0,1-1.39-.49,1.55,1.55,0,0,1-.53-1.24h.89a.94.94,0,0,0,.28.72,1.09,1.09,0,0,0,.78.27,1.49,1.49,0,0,0,.83-.21A.75.75,0,0,0,267.56,116.34Z"/><path class="aw" d="M274.13,111.21l-.23,1.28h1l-.12.7h-1l-.55,3.28a1,1,0,0,0,0,.24.37.37,0,0,0,.41.38,2.83,2.83,0,0,0,.43,0l-.07.74a2.74,2.74,0,0,1-.64.08.9.9,0,0,1-.79-.38,1.5,1.5,0,0,1-.21-1l.54-3.27H272l.12-.7H273l.23-1.28Z"/><path class="aw" d="M277.85,112.39a1.93,1.93,0,0,1,1.13.36,2.05,2.05,0,0,1,.7,1,2.86,2.86,0,0,1,.16,1.35v.11a3.57,3.57,0,0,1-.46,1.39,2.6,2.6,0,0,1-.95,1,2.32,2.32,0,0,1-1.27.33,2,2,0,0,1-1.14-.36,2.06,2.06,0,0,1-.69-1,3.05,3.05,0,0,1-.16-1.33,3.61,3.61,0,0,1,.45-1.48,2.72,2.72,0,0,1,.95-1A2.31,2.31,0,0,1,277.85,112.39Zm-1.8,2.83a3.42,3.42,0,0,0,0,.64,1.59,1.59,0,0,0,.34.92,1,1,0,0,0,.79.36,1.41,1.41,0,0,0,.81-.22,1.88,1.88,0,0,0,.63-.7,3,3,0,0,0,.33-1,4.93,4.93,0,0,0,0-.76,1.63,1.63,0,0,0-.36-.93,1,1,0,0,0-.79-.36,1.46,1.46,0,0,0-1.16.53,2.62,2.62,0,0,0-.59,1.45Z"/><path class="aw" d="M284.69,112.48l-.11.59a2,2,0,0,1,1.6-.68,1.6,1.6,0,0,1,.85.23,1.06,1.06,0,0,1,.48.62,2.2,2.2,0,0,1,1.76-.85,1.39,1.39,0,0,1,1.16.53,1.84,1.84,0,0,1,.28,1.38l-.58,3.47h-.88l.58-3.48a1.77,1.77,0,0,0,0-.46c-.06-.45-.35-.67-.87-.68a1.39,1.39,0,0,0-1.38,1.11l-.6,3.51h-.89l.58-3.48a1.07,1.07,0,0,0-.16-.83.81.81,0,0,0-.7-.3,1.44,1.44,0,0,0-1.32.75l-.67,3.86h-.88l.92-5.28Z"/><path class="aw" d="M292.45,117.77h-.88l.92-5.28h.88Zm.73-7.21a.48.48,0,0,1,.37.13.53.53,0,0,1-.37.91.47.47,0,0,1-.38-.13.51.51,0,0,1-.14-.37.52.52,0,0,1,.15-.38A.49.49,0,0,1,293.18,110.56Z"/><path class="aw" d="M294.15,115.12a4.29,4.29,0,0,1,.44-1.46,2.65,2.65,0,0,1,.86-1,2.08,2.08,0,0,1,1.12-.31,1.64,1.64,0,0,1,1.35.65l.51-2.76h.89l-1.3,7.5h-.81l.09-.57a1.94,1.94,0,0,1-1.54.67,1.46,1.46,0,0,1-1.17-.58,2.46,2.46,0,0,1-.46-1.48A4.19,4.19,0,0,1,294.15,115.12Zm.85.5a1.82,1.82,0,0,0,.25,1.09.91.91,0,0,0,.77.39,1.58,1.58,0,0,0,1.36-.77l.42-2.44a1.1,1.1,0,0,0-1.06-.74,1.33,1.33,0,0,0-.92.32,2,2,0,0,0-.61.92A3.65,3.65,0,0,0,295,115.62Z"/><path d="M347.82,29.1c.07-.52-.2-.91-.81-1.15l-.84-.3-.29-.13c-.95-.43-1.39-1-1.33-1.82a1.9,1.9,0,0,1,.41-1.05,2.33,2.33,0,0,1,.94-.7,3.09,3.09,0,0,1,1.25-.23,2.51,2.51,0,0,1,1.15.29,1.82,1.82,0,0,1,.77.76,2.06,2.06,0,0,1,.24,1.11h-.93a1.23,1.23,0,0,0-.29-1,1.29,1.29,0,0,0-1-.37,1.74,1.74,0,0,0-1.11.31,1.22,1.22,0,0,0-.52.88c-.07.49.23.86.89,1.11l.73.26.36.15a1.84,1.84,0,0,1,.87,2.92,2.18,2.18,0,0,1-.95.68,3.26,3.26,0,0,1-1.3.22,2.64,2.64,0,0,1-1.22-.28,1.93,1.93,0,0,1-1.1-1.88h.92a1.21,1.21,0,0,0,.35,1,1.6,1.6,0,0,0,1.09.38,2,2,0,0,0,1.17-.31A1.19,1.19,0,0,0,347.82,29.1Z"/><path d="M351.24,25.64l-.11.59a2,2,0,0,1,1.6-.68,1.52,1.52,0,0,1,.85.23,1.09,1.09,0,0,1,.49.62,2.15,2.15,0,0,1,1.75-.85,1.39,1.39,0,0,1,1.17.53,1.88,1.88,0,0,1,.27,1.38l-.58,3.47h-.88l.58-3.48a1.84,1.84,0,0,0,0-.47c-.06-.44-.35-.67-.87-.68a1.41,1.41,0,0,0-1.38,1.12l-.6,3.51h-.89l.59-3.48a1.11,1.11,0,0,0-.17-.83.85.85,0,0,0-.7-.31,1.47,1.47,0,0,0-1.32.75l-.66,3.87h-.89l.92-5.29Z"/><path d="M361.28,30.93a1.45,1.45,0,0,1,0-.28l0-.28a2.14,2.14,0,0,1-1.54.65,1.54,1.54,0,0,1-1.14-.44,1.37,1.37,0,0,1-.4-1.08,1.61,1.61,0,0,1,.74-1.31,3.16,3.16,0,0,1,1.8-.47h.92l.06-.42a1,1,0,0,0-.18-.75.91.91,0,0,0-.7-.28,1.36,1.36,0,0,0-.8.22,1,1,0,0,0-.43.61h-.88a1.3,1.3,0,0,1,.36-.82,2.06,2.06,0,0,1,.81-.56,2.81,2.81,0,0,1,1-.19,1.76,1.76,0,0,1,1.29.5,1.57,1.57,0,0,1,.38,1.28l-.43,2.62,0,.37a1.57,1.57,0,0,0,.06.53v.09Zm-1.39-.69a1.57,1.57,0,0,0,.81-.2,2.13,2.13,0,0,0,.65-.59l.19-1.09h-.67a2.58,2.58,0,0,0-1.28.26,1,1,0,0,0-.5.75.74.74,0,0,0,.17.62A.81.81,0,0,0,359.89,30.24Z"/><path d="M364.33,30.93h-.88l1.3-7.5h.88Z"/><path d="M366.73,30.93h-.88l1.3-7.5H368Z"/><path d="M370.46,31a1.9,1.9,0,0,1-1.54-.72,2.5,2.5,0,0,1-.47-1.81l0-.21a3.49,3.49,0,0,1,.46-1.44,2.77,2.77,0,0,1,.94-1,2.17,2.17,0,0,1,1.19-.31,1.67,1.67,0,0,1,1.28.54,2.23,2.23,0,0,1,.51,1.41,4.52,4.52,0,0,1,0,.64l-.06.4h-3.45a1.79,1.79,0,0,0,.24,1.23,1.14,1.14,0,0,0,1,.52,1.86,1.86,0,0,0,1.44-.71l.51.43a2.31,2.31,0,0,1-.86.75A2.4,2.4,0,0,1,370.46,31Zm.56-4.74a1.31,1.31,0,0,0-.95.37,2.68,2.68,0,0,0-.65,1.15H372l0-.08a1.42,1.42,0,0,0-.2-1A.91.91,0,0,0,371,26.28Z"/><path d="M376.63,29.5c.05-.37-.15-.62-.6-.77l-.91-.27c-.78-.27-1.15-.71-1.13-1.33a1.5,1.5,0,0,1,.64-1.15,2.28,2.28,0,0,1,1.42-.43,1.88,1.88,0,0,1,1.3.46,1.51,1.51,0,0,1,.48,1.19H377a.8.8,0,0,0-.25-.65,1,1,0,0,0-.69-.26,1.33,1.33,0,0,0-.79.23.81.81,0,0,0-.35.57c0,.31.14.53.56.67l.44.13a2.76,2.76,0,0,1,1.29.61,1.14,1.14,0,0,1,.35.93,1.46,1.46,0,0,1-.32.86,1.83,1.83,0,0,1-.78.56,2.59,2.59,0,0,1-1,.17,2,2,0,0,1-1.39-.49,1.49,1.49,0,0,1-.52-1.23h.88a.92.92,0,0,0,.28.71,1.09,1.09,0,0,0,.78.27,1.48,1.48,0,0,0,.83-.2A.76.76,0,0,0,376.63,29.5Z"/><path d="M380.75,24.36l-.23,1.28h1l-.12.7h-1l-.55,3.29a.88.88,0,0,0,0,.23.37.37,0,0,0,.41.38,2,2,0,0,0,.43,0l-.07.74A2.3,2.3,0,0,1,380,31a.93.93,0,0,1-.79-.39,1.47,1.47,0,0,1-.21-1l.54-3.27h-.93l.12-.7h.93l.23-1.28Z"/><path d="M384.51,30.93l.8-4.59h-.81l.12-.7h.81l.09-.62a2.09,2.09,0,0,1,.61-1.25,1.87,1.87,0,0,1,1.31-.46,2.79,2.79,0,0,1,.63.09l-.11.74a3.55,3.55,0,0,0-.47-.06,1,1,0,0,0-.75.29,1.32,1.32,0,0,0-.35.75l-.08.52h1.1l-.13.7h-1.09l-.8,4.59Z"/><path d="M390.73,30.93a1.41,1.41,0,0,1,0-.28v-.28a2.12,2.12,0,0,1-1.54.65,1.56,1.56,0,0,1-1.14-.44,1.33,1.33,0,0,1-.39-1.08,1.6,1.6,0,0,1,.73-1.31,3.16,3.16,0,0,1,1.8-.47h.93l.06-.42a1,1,0,0,0-.19-.75.88.88,0,0,0-.69-.28,1.39,1.39,0,0,0-.81.22,1,1,0,0,0-.42.61h-.89a1.42,1.42,0,0,1,.36-.82,2.06,2.06,0,0,1,.81-.56,2.86,2.86,0,0,1,1-.19,1.74,1.74,0,0,1,1.28.5,1.58,1.58,0,0,1,.39,1.28l-.43,2.62,0,.37a1.57,1.57,0,0,0,.06.53v.09Zm-1.39-.69a1.52,1.52,0,0,0,.81-.2,2,2,0,0,0,.65-.59l.19-1.09h-.67a2.6,2.6,0,0,0-1.28.26,1,1,0,0,0-.5.75.78.78,0,0,0,.17.62A.83.83,0,0,0,389.34,30.24Z"/><path d="M393.78,30.93h-.88l1.3-7.5h.89Z"/><path d="M396.19,30.93h-.88l1.3-7.5h.88Z"/><path d="M363.64,42.93l.8-4.59h-.82l.12-.7h.81l.09-.62a2.1,2.1,0,0,1,.62-1.25,1.87,1.87,0,0,1,1.31-.46,2.94,2.94,0,0,1,.63.09l-.11.74-.47-.06a1,1,0,0,0-.75.29,1.26,1.26,0,0,0-.35.75l-.08.52h1.09l-.12.7h-1.09l-.8,4.59Z"/><path d="M369.91,38.45l-.41,0a1.5,1.5,0,0,0-1.34.76l-.65,3.76h-.88l.91-5.29h.86l-.13.61a1.54,1.54,0,0,1,1.32-.71,1.52,1.52,0,0,1,.42.07Z"/><path d="M372.79,37.55a1.85,1.85,0,0,1,1.14.36,2,2,0,0,1,.7,1,3,3,0,0,1,.15,1.35v.1a3.61,3.61,0,0,1-.45,1.4,2.76,2.76,0,0,1-.95,1,2.26,2.26,0,0,1-1.28.32,1.82,1.82,0,0,1-1.13-.36,2,2,0,0,1-.7-.95,3.1,3.1,0,0,1-.15-1.34,3.56,3.56,0,0,1,.44-1.47,2.81,2.81,0,0,1,.95-1A2.23,2.23,0,0,1,372.79,37.55ZM371,40.38a2.29,2.29,0,0,0,0,.64,1.55,1.55,0,0,0,.34.92,1.06,1.06,0,0,0,.79.35,1.45,1.45,0,0,0,.81-.21,1.82,1.82,0,0,0,.62-.71,2.89,2.89,0,0,0,.33-1,5,5,0,0,0,0-.75,1.58,1.58,0,0,0-.36-.93,1.08,1.08,0,0,0-.79-.37,1.43,1.43,0,0,0-1.16.54,2.7,2.7,0,0,0-.6,1.45Z"/><path d="M377.18,37.64l-.11.59a2,2,0,0,1,1.61-.68,1.56,1.56,0,0,1,.85.23,1.11,1.11,0,0,1,.48.62,2.15,2.15,0,0,1,1.75-.85,1.39,1.39,0,0,1,1.17.53,1.93,1.93,0,0,1,.28,1.38l-.58,3.47h-.88l.57-3.48a1.84,1.84,0,0,0,0-.47c-.06-.44-.35-.67-.87-.68a1.39,1.39,0,0,0-.87.3,1.44,1.44,0,0,0-.51.82l-.6,3.51h-.89l.59-3.48a1.12,1.12,0,0,0-.16-.83.88.88,0,0,0-.71-.31,1.45,1.45,0,0,0-1.31.75l-.67,3.87h-.89l.92-5.29Z"/><path d="M391.88,42.93H391l.57-3.29h-3.47l-.58,3.29h-.91l1.23-7.11h.92l-.53,3h3.46l.54-3h.92Z"/><path d="M395.13,38.11l-1.36-.44.34-.71,1.35.56.25-1.7h.73l-.34,1.68,1.48-.53.09.77-1.53.45.71,1.34-.62.43-.64-1.42-1.08,1.37-.56-.48Z"/><path class="aw" d="M313.6,114.62a26.73,26.73,0,0,1-6.89-1.6,28,28,0,0,1-6.27-3.44,26.13,26.13,0,0,1-8.63-11.4,29.31,29.31,0,0,1-1.67-7,33.08,33.08,0,0,1-.19-3.59c0-1.19.08-2.36.15-3.54a45.11,45.11,0,0,1,1-7,20.87,20.87,0,0,1,2.69-6.54l.09,0a22.17,22.17,0,0,0-2.25,6.59,47.6,47.6,0,0,0-.72,7,44,44,0,0,0,.2,7,28,28,0,0,0,1.69,6.76A26,26,0,0,0,301,108.92a28.57,28.57,0,0,0,12.66,5.6Z"/><polygon class="aw" points="294.99 103.88 289.79 105.9 294.26 102.57 294.99 103.88"/><path d="M358.07,47.17a8.52,8.52,0,0,0-1.55-3,6.72,6.72,0,0,0-5.44-2.45,8.23,8.23,0,0,0-3.26.83l-.07-.08a6.24,6.24,0,0,1,10.42,4.68Z"/><polygon points="354.3 41.66 363.15 34.27 355.33 42.74 354.3 41.66"/></svg>